<svg height="494" viewBox="0 0 2342 494" width="2342" xmlns="http://www.w3.org/2000/svg" xmlns:xlink="http://www.w3.org/1999/xlink"><linearGradient id="a" x1="0%" x2="100%" y1="0%" y2="100%"><stop offset="0" stop-color="#f67e05"/><stop offset="1" stop-color="#f61d42"/></linearGradient><g fill="none" fill-rule="evenodd"><circle cx="246.75" cy="246.75" fill="url(#a)" r="246.75"/><g fill-rule="nonzero"><g fill="#fff" transform="translate(96 94.5)"><path d="m240.639975 221.601439c-12.326018-22.535492-26.706373-44.38809-47.249737-58.728857-2.054336-1.365788-3.423894-2.048681-5.47823-3.414469-29.445489-15.706554-68.477881-1.365787-84.227793 14.340768-10.9564611 10.926299-36.9780557 40.290727-45.8801801 75.118305-.6847788 3.414469-7.5325668 32.778897 8.9021244 46.436771 4.7934517 4.097362 11.6412397 6.146043 19.8585853 6.146043 9.5869033 0 21.2281434-2.731575 34.9237194-8.877618 23.282479-10.243405 43.141064-12.97498 59.575756-7.51183 4.793451 1.365787 9.586903 4.097362 15.065133 6.828936 6.163009 3.414469 12.326019 6.828937 18.489028 8.194725 12.326018 2.731574 29.445488-2.731575 38.347613-12.292087 15.749912-17.072342.684779-43.022302-8.902125-60.094644-1.369557-2.048681-2.739115-4.097362-3.423894-6.146043z"/><path d="m83.3190605 105.372616c8.1861705 8.171059 17.0545215 12.937511 25.9228735 12.937511 1.364361 0 3.410904 0 4.775266-.680922 10.914894-2.042765 19.101064-10.213824 24.558511-23.1513341 4.775266-12.2565887 6.139628-27.2368637 3.410904-42.8980603-2.728723-14.980275-9.550532-29.2796285-18.418883-38.8125308-9.550532-10.21382383-20.465426-14.29935338-30.6981393-12.25658861-10.9148939 2.04276478-19.1010644 10.21382391-24.5585114 23.15133411-4.7752661 12.2565887-6.1396278 27.2368637-3.4109043 42.8980603s9.5505322 29.2796285 18.4188835 38.8125304z"/><path d="m191.064085 113.811231c1.376916 0 2.753833.68244 4.819207.68244 9.638413 0 19.276826-4.777077 26.849865-12.966351 8.949955-9.5541531 15.146078-23.2029435 17.89991-37.5341733 2.065374-15.0136693.688458-29.3448992-5.507665-40.946371-6.196122-12.9663508-15.834535-20.47318544-26.849865-21.83806447-11.015329-1.36487903-22.719116 2.72975807-31.669071 12.96635077-8.949955 9.5541533-15.146078 23.2029436-17.89991 37.5341734-2.065375 15.0136694-.688458 29.3448992 5.507664 40.946371 6.196123 12.2839116 15.834536 19.7907456 26.849865 21.1556246z"/><path d="m305.701221 121.602588c-.692368-13.043507-6.923681-23.3410124-15.924466-28.8330154-9.693152-5.4920029-21.463409-5.4920029-33.233666.6865004-11.770257 5.4920029-22.155778 15.789508-29.079459 28.146515-7.616048 13.043507-11.077889 26.773514-9.693153 39.130521.692368 13.043507 6.923681 23.341012 15.924466 28.833015 4.846576 2.746002 9.693153 4.119003 15.232097 4.119003s11.770257-1.373001 18.001569-4.119003c11.770257-5.492003 22.155778-15.789508 29.079459-28.146515 7.616049-13.043507 11.077889-26.773514 9.693153-39.817021z"/><path d="m84.8722743 171.205647c2.0512937-12.318706 0-26.690529-6.1538809-39.693607s-15.7265846-23.953038-26.6668173-30.796764c-11.6239973-6.8437249-22.56423-8.21247-32.8206982-3.4218623-9.57270368 4.7906073-16.41034915 14.3718233-18.46164278 27.3749013-2.05129364 12.318705 0 26.690528 6.15388091 39.693606 6.15388087 13.003078 15.72658457 23.953039 26.66681727 30.796764 6.8376455 4.106235 13.675291 6.159353 20.5129364 6.159353 4.1025873 0 8.2051746-.684373 12.3077619-2.73749 9.5727036-4.790608 16.4103491-14.371823 18.4616427-27.374901z"/></g><g transform="translate(650.55 136.6)"><path d="m34.8 215.4v-72h31.2c10.6 0 20.45-1.25 29.55-3.75s17-6.4 23.7-11.7 11.95-11.95 15.75-19.95 5.7-17.4 5.7-28.2c0-11.4-1.9-20.95-5.7-28.65s-9-13.95-15.6-18.75-14.45-8.2-23.55-10.2-19.05-3-29.85-3h-66v196.2zm28.5-99.9h-28.5v-68.4h28.5c14.4 0 25.2 2.35 32.4 7.05s10.8 13.25 10.8 25.65c0 23.8-14.4 35.7-43.2 35.7zm151.8 99.9v-120h28.8v-27.3h-28.8v-15.9c0-16.6 6.2-24.9 18.6-24.9 5.4 0 10.8 1.2 16.2 3.6l6.6-25.8c-3.4-1.4-7.45-2.6-12.15-3.6s-9.65-1.5-14.85-1.5c-8.8 0-16.25 1.3-22.35 3.9s-11.15 6.25-15.15 10.95-6.9 10.3-8.7 16.8-2.7 13.55-2.7 21.15v15.3l-19.8 1.5v25.8h19.8v120zm111.9 3.6c9.2 0 18.05-1.7 26.55-5.1s15.95-8.4 22.35-15 11.55-14.7 15.45-24.3 5.85-20.5 5.85-32.7-1.95-23.1-5.85-32.7-9.05-17.7-15.45-24.3-13.85-11.65-22.35-15.15-17.35-5.25-26.55-5.25-18 1.75-26.4 5.25-15.85 8.55-22.35 15.15-11.65 14.7-15.45 24.3-5.7 20.5-5.7 32.7 1.9 23.1 5.7 32.7 8.95 17.7 15.45 24.3 13.95 11.6 22.35 15 17.2 5.1 26.4 5.1zm0-28.2c-10.8 0-19.25-4.45-25.35-13.35s-9.15-20.75-9.15-35.55c0-15 3.05-26.95 9.15-35.85s14.55-13.35 25.35-13.35 19.3 4.45 25.5 13.35 9.3 20.85 9.3 35.85c0 14.8-3.1 26.65-9.3 35.55s-14.7 13.35-25.5 13.35zm156.3 28.2c5.8 0 11.25-.55 16.35-1.65s9.65-2.35 13.65-3.75l-6-25.5c-2.2 1-4.65 1.8-7.35 2.4s-5.35.9-7.95.9c-13.8 0-20.7-8.6-20.7-25.8v-70.2h37.5v-27.3h-37.5v-40.2h-28.8l-4.2 40.2-22.8 1.5v25.8h21v70.2c0 8 .85 15.25 2.55 21.75s4.4 12.1 8.1 16.8 8.5 8.35 14.4 10.95 13.15 3.9 21.75 3.9zm116.4 0c9.4 0 18.4-1.5 27-4.5s16.4-6.8 23.4-11.4l-11.7-21.6c-5.4 3.4-10.85 6.05-16.35 7.95s-11.45 2.85-17.85 2.85c-12 0-21.85-3.6-29.55-10.8s-12.35-17.5-13.95-30.9h93.6c1-4 1.5-9.4 1.5-16.2 0-10.2-1.3-19.6-3.9-28.2s-6.45-16-11.55-22.2-11.45-11-19.05-14.4-16.4-5.1-26.4-5.1c-8.6 0-17 1.8-25.2 5.4s-15.45 8.7-21.75 15.3-11.35 14.7-15.15 24.3-5.7 20.4-5.7 32.4c0 12.2 1.85 23.05 5.55 32.55s8.85 17.55 15.45 24.15 14.3 11.65 23.1 15.15 18.3 5.25 28.5 5.25zm26.1-90.3h-65.4c1.6-12.4 5.7-21.75 12.3-28.05s14.3-9.45 23.1-9.45c10.2 0 17.75 3.3 22.65 9.9s7.35 15.8 7.35 27.6zm97.5 86.7v-102.9c6.2-6 11.75-10.55 16.65-13.65s10.55-4.65 16.95-4.65c8.2 0 14.1 2.5 17.7 7.5s5.4 13.6 5.4 25.8v87.9h34.5v-92.4c0-18.8-3.6-33.25-10.8-43.35s-18.7-15.15-34.5-15.15c-10.2 0-19.15 2.3-26.85 6.9s-14.85 10.1-21.45 16.5h-1.2l-2.4-19.8h-28.5v147.3z" fill="#333"/><path d="m908.4 219c8 0 15.6-1.9 22.8-5.7s13.5-8.4 18.9-13.8h1.2l2.4 15.9h28.5v-211.8h-34.5v53.4l1.2 23.7c-5.8-5-11.6-8.95-17.4-11.85s-12.9-4.35-21.3-4.35c-8 0-15.75 1.8-23.25 5.4s-14.15 8.7-19.95 15.3-10.45 14.7-13.95 24.3-5.25 20.4-5.25 32.4c0 24.4 5.45 43.35 16.35 56.85s25.65 20.25 44.25 20.25zm8.4-28.5c-10.8 0-19.05-4.15-24.75-12.45s-8.55-20.45-8.55-36.45c0-15.6 3.3-27.6 9.9-36s14.7-12.6 24.3-12.6c5 0 9.95.9 14.85 2.7s9.95 5 15.15 9.6v68.7c-9.6 11-19.9 16.5-30.9 16.5zm169.5 28.5c9.2 0 18.05-1.7 26.55-5.1s15.95-8.4 22.35-15 11.55-14.7 15.45-24.3 5.85-20.5 5.85-32.7-1.95-23.1-5.85-32.7-9.05-17.7-15.45-24.3-13.85-11.65-22.35-15.15-17.35-5.25-26.55-5.25-18 1.75-26.4 5.25-15.85 8.55-22.35 15.15-11.65 14.7-15.45 24.3-5.7 20.5-5.7 32.7 1.9 23.1 5.7 32.7 8.95 17.7 15.45 24.3 13.95 11.6 22.35 15 17.2 5.1 26.4 5.1zm0-28.2c-10.8 0-19.25-4.45-25.35-13.35s-9.15-20.75-9.15-35.55c0-15 3.05-26.95 9.15-35.85s14.55-13.35 25.35-13.35 19.3 4.45 25.5 13.35 9.3 20.85 9.3 35.85c0 14.8-3.1 26.65-9.3 35.55s-14.7 13.35-25.5 13.35zm165.9 28.2c8.4 0 16.8-1.6 25.2-4.8s16.1-7.9 23.1-14.1l-14.4-21.9c-4 3.4-8.55 6.35-13.65 8.85s-10.65 3.75-16.65 3.75c-11.6 0-21.05-4.45-28.35-13.35s-10.95-20.75-10.95-35.55c0-15 3.7-26.95 11.1-35.85s17.1-13.35 29.1-13.35c4.6 0 8.9.95 12.9 2.85s8 4.55 12 7.95l16.5-21.9c-5-4.8-11.05-8.85-18.15-12.15s-15.45-4.95-25.05-4.95c-9.8 0-19.15 1.75-28.05 5.25s-16.75 8.55-23.55 15.15-12.2 14.7-16.2 24.3-6 20.5-6 32.7 1.8 23.1 5.4 32.7 8.6 17.7 15 24.3 13.95 11.6 22.65 15 18.05 5.1 28.05 5.1zm129 0c5.8 0 11.25-.55 16.35-1.65s9.65-2.35 13.65-3.75l-6-25.5c-2.2 1-4.65 1.8-7.35 2.4s-5.35.9-7.95.9c-13.8 0-20.7-8.6-20.7-25.8v-70.2h37.5v-27.3h-37.5v-40.2h-28.8l-4.2 40.2-22.8 1.5v25.8h21v70.2c0 8 .85 15.25 2.55 21.75s4.4 12.1 8.1 16.8 8.5 8.35 14.4 10.95 13.15 3.9 21.75 3.9zm113.7 0c9.2 0 18.05-1.7 26.55-5.1s15.95-8.4 22.35-15 11.55-14.7 15.45-24.3 5.85-20.5 5.85-32.7-1.95-23.1-5.85-32.7-9.05-17.7-15.45-24.3-13.85-11.65-22.35-15.15-17.35-5.25-26.55-5.25-18 1.75-26.4 5.25-15.85 8.55-22.35 15.15-11.65 14.7-15.45 24.3-5.7 20.5-5.7 32.7 1.9 23.1 5.7 32.7 8.95 17.7 15.45 24.3 13.95 11.6 22.35 15 17.2 5.1 26.4 5.1zm0-28.2c-10.8 0-19.25-4.45-25.35-13.35s-9.15-20.75-9.15-35.55c0-15 3.05-26.95 9.15-35.85s14.55-13.35 25.35-13.35 19.3 4.45 25.5 13.35 9.3 20.85 9.3 35.85c0 14.8-3.1 26.65-9.3 35.55s-14.7 13.35-25.5 13.35zm138.9 24.6v-90c4.6-11.2 10.1-19.05 16.5-23.55s12.5-6.75 18.3-6.75c3.2 0 5.9.2 8.1.6s4.6 1 7.2 1.8l6-30c-4.2-2-9.8-3-16.8-3-7.8 0-15.4 2.55-22.8 7.65s-13.7 12.45-18.9 22.05h-1.2l-2.4-26.1h-28.5v147.3z" fill="#f4526d"/></g></g></g></svg>